<mxfile host="Electron" agent="Mozilla/5.0 (Windows NT 10.0; Win64; x64) AppleWebKit/537.36 (KHTML, like Gecko) draw.io/28.0.6 Chrome/138.0.7204.100 Electron/37.2.3 Safari/537.36" version="28.0.6">
  <diagram name="PÃ¡gina-1" id="qHKFSF5167Aq2VNXymbo">
    <mxGraphModel dx="2066" dy="841" grid="1" gridSize="10" guides="1" tooltips="1" connect="1" arrows="1" fold="1" page="1" pageScale="1" pageWidth="1169" pageHeight="827" background="none" math="0" shadow="0">
      <root>
        <mxCell id="0" />
        <mxCell id="1" parent="0" />
        <mxCell id="If0-8-Tt-OfvkXR4IfFY-1" value="AWS&lt;div&gt;&lt;br&gt;&lt;/div&gt;" style="points=[[0,0],[0.25,0],[0.5,0],[0.75,0],[1,0],[1,0.25],[1,0.5],[1,0.75],[1,1],[0.75,1],[0.5,1],[0.25,1],[0,1],[0,0.75],[0,0.5],[0,0.25]];outlineConnect=0;gradientColor=none;html=1;whiteSpace=wrap;fontSize=12;fontStyle=0;container=1;pointerEvents=0;collapsible=0;recursiveResize=0;shape=mxgraph.aws4.group;grIcon=mxgraph.aws4.group_aws_cloud_alt;strokeColor=#232F3E;fillColor=none;verticalAlign=top;align=left;spacingLeft=30;fontColor=#232F3E;dashed=0;" parent="1" vertex="1">
          <mxGeometry x="30" y="60" width="1120" height="740" as="geometry" />
        </mxCell>
        <mxCell id="If0-8-Tt-OfvkXR4IfFY-2" value="VPC" style="points=[[0,0],[0.25,0],[0.5,0],[0.75,0],[1,0],[1,0.25],[1,0.5],[1,0.75],[1,1],[0.75,1],[0.5,1],[0.25,1],[0,1],[0,0.75],[0,0.5],[0,0.25]];outlineConnect=0;gradientColor=none;html=1;whiteSpace=wrap;fontSize=12;fontStyle=0;container=1;pointerEvents=0;collapsible=0;recursiveResize=0;shape=mxgraph.aws4.group;grIcon=mxgraph.aws4.group_vpc2;strokeColor=#8C4FFF;fillColor=none;verticalAlign=top;align=left;spacingLeft=30;fontColor=#AAB7B8;dashed=0;" parent="If0-8-Tt-OfvkXR4IfFY-1" vertex="1">
          <mxGeometry x="30" y="110" width="970" height="600" as="geometry" />
        </mxCell>
        <mxCell id="If0-8-Tt-OfvkXR4IfFY-11" value="Availability Zone 1" style="fillColor=none;strokeColor=#147EBA;dashed=1;verticalAlign=top;fontStyle=0;fontColor=#147EBA;whiteSpace=wrap;html=1;align=left;" parent="If0-8-Tt-OfvkXR4IfFY-2" vertex="1">
          <mxGeometry x="50" y="20" width="370" height="570" as="geometry" />
        </mxCell>
        <mxCell id="If0-8-Tt-OfvkXR4IfFY-13" value="Public subnet" style="points=[[0,0],[0.25,0],[0.5,0],[0.75,0],[1,0],[1,0.25],[1,0.5],[1,0.75],[1,1],[0.75,1],[0.5,1],[0.25,1],[0,1],[0,0.75],[0,0.5],[0,0.25]];outlineConnect=0;gradientColor=none;html=1;whiteSpace=wrap;fontSize=12;fontStyle=0;container=1;pointerEvents=0;collapsible=0;recursiveResize=0;shape=mxgraph.aws4.group;grIcon=mxgraph.aws4.group_security_group;grStroke=0;strokeColor=#7AA116;fillColor=#F2F6E8;verticalAlign=top;align=left;spacingLeft=30;fontColor=#248814;dashed=0;" parent="If0-8-Tt-OfvkXR4IfFY-2" vertex="1">
          <mxGeometry x="60" y="80" width="350" height="100" as="geometry" />
        </mxCell>
        <mxCell id="If0-8-Tt-OfvkXR4IfFY-12" value="Availability Zone 2" style="fillColor=none;strokeColor=#147EBA;dashed=1;verticalAlign=top;fontStyle=0;fontColor=#147EBA;whiteSpace=wrap;html=1;align=right;" parent="If0-8-Tt-OfvkXR4IfFY-2" vertex="1">
          <mxGeometry x="540" y="20" width="400" height="570" as="geometry" />
        </mxCell>
        <mxCell id="If0-8-Tt-OfvkXR4IfFY-27" style="edgeStyle=orthogonalEdgeStyle;rounded=0;orthogonalLoop=1;jettySize=auto;html=1;entryX=0.167;entryY=0;entryDx=0;entryDy=0;entryPerimeter=0;exitX=0;exitY=0.5;exitDx=0;exitDy=0;exitPerimeter=0;" parent="If0-8-Tt-OfvkXR4IfFY-2" source="If0-8-Tt-OfvkXR4IfFY-9" target="If0-8-Tt-OfvkXR4IfFY-21" edge="1">
          <mxGeometry relative="1" as="geometry">
            <Array as="points">
              <mxPoint x="240" y="30" />
            </Array>
          </mxGeometry>
        </mxCell>
        <mxCell id="If0-8-Tt-OfvkXR4IfFY-9" value="" style="sketch=0;points=[[0,0,0],[0.25,0,0],[0.5,0,0],[0.75,0,0],[1,0,0],[0,1,0],[0.25,1,0],[0.5,1,0],[0.75,1,0],[1,1,0],[0,0.25,0],[0,0.5,0],[0,0.75,0],[1,0.25,0],[1,0.5,0],[1,0.75,0]];outlineConnect=0;fontColor=#232F3E;fillColor=#8C4FFF;strokeColor=#ffffff;dashed=0;verticalLabelPosition=bottom;verticalAlign=top;align=center;html=1;fontSize=12;fontStyle=0;aspect=fixed;shape=mxgraph.aws4.resourceIcon;resIcon=mxgraph.aws4.elastic_load_balancing;" parent="If0-8-Tt-OfvkXR4IfFY-2" vertex="1">
          <mxGeometry x="460" y="10" width="40" height="40" as="geometry" />
        </mxCell>
        <mxCell id="If0-8-Tt-OfvkXR4IfFY-14" value="Public subnet" style="points=[[0,0],[0.25,0],[0.5,0],[0.75,0],[1,0],[1,0.25],[1,0.5],[1,0.75],[1,1],[0.75,1],[0.5,1],[0.25,1],[0,1],[0,0.75],[0,0.5],[0,0.25]];outlineConnect=0;gradientColor=none;html=1;whiteSpace=wrap;fontSize=12;fontStyle=0;container=1;pointerEvents=0;collapsible=0;recursiveResize=0;shape=mxgraph.aws4.group;grIcon=mxgraph.aws4.group_security_group;grStroke=0;strokeColor=#7AA116;fillColor=#F2F6E8;verticalAlign=top;align=left;spacingLeft=30;fontColor=#248814;dashed=0;" parent="If0-8-Tt-OfvkXR4IfFY-2" vertex="1">
          <mxGeometry x="550" y="76" width="380" height="104" as="geometry" />
        </mxCell>
        <mxCell id="If0-8-Tt-OfvkXR4IfFY-20" value="" style="sketch=0;points=[[0,0,0],[0.25,0,0],[0.5,0,0],[0.75,0,0],[1,0,0],[0,1,0],[0.25,1,0],[0.5,1,0],[0.75,1,0],[1,1,0],[0,0.25,0],[0,0.5,0],[0,0.75,0],[1,0.25,0],[1,0.5,0],[1,0.75,0]];outlineConnect=0;fontColor=#232F3E;fillColor=#ED7100;strokeColor=#ffffff;dashed=0;verticalLabelPosition=bottom;verticalAlign=top;align=center;html=1;fontSize=12;fontStyle=0;aspect=fixed;shape=mxgraph.aws4.resourceIcon;resIcon=mxgraph.aws4.ec2;" parent="If0-8-Tt-OfvkXR4IfFY-2" vertex="1">
          <mxGeometry x="750" y="108.5" width="39" height="39" as="geometry" />
        </mxCell>
        <mxCell id="If0-8-Tt-OfvkXR4IfFY-29" value="EC2" style="text;html=1;align=center;verticalAlign=middle;whiteSpace=wrap;rounded=0;fontStyle=1;fontSize=11;" parent="If0-8-Tt-OfvkXR4IfFY-2" vertex="1">
          <mxGeometry x="660" y="148" width="60" height="20" as="geometry" />
        </mxCell>
        <mxCell id="If0-8-Tt-OfvkXR4IfFY-30" value="EC2" style="text;html=1;align=center;verticalAlign=middle;whiteSpace=wrap;rounded=0;fontStyle=1;fontSize=11;" parent="If0-8-Tt-OfvkXR4IfFY-2" vertex="1">
          <mxGeometry x="739.5" y="148" width="60" height="20" as="geometry" />
        </mxCell>
        <mxCell id="If0-8-Tt-OfvkXR4IfFY-33" value="ELB" style="text;html=1;align=center;verticalAlign=middle;whiteSpace=wrap;rounded=0;fontStyle=1;fontSize=11;" parent="If0-8-Tt-OfvkXR4IfFY-2" vertex="1">
          <mxGeometry x="450" y="50" width="60" height="20" as="geometry" />
        </mxCell>
        <mxCell id="If0-8-Tt-OfvkXR4IfFY-34" style="edgeStyle=orthogonalEdgeStyle;rounded=0;orthogonalLoop=1;jettySize=auto;html=1;exitX=1;exitY=0.5;exitDx=0;exitDy=0;exitPerimeter=0;entryX=0.839;entryY=0.023;entryDx=0;entryDy=0;entryPerimeter=0;" parent="If0-8-Tt-OfvkXR4IfFY-2" source="If0-8-Tt-OfvkXR4IfFY-9" target="If0-8-Tt-OfvkXR4IfFY-21" edge="1">
          <mxGeometry relative="1" as="geometry" />
        </mxCell>
        <mxCell id="If0-8-Tt-OfvkXR4IfFY-21" value="Auto Scaling group" style="points=[[0,0],[0.25,0],[0.5,0],[0.75,0],[1,0],[1,0.25],[1,0.5],[1,0.75],[1,1],[0.75,1],[0.5,1],[0.25,1],[0,1],[0,0.75],[0,0.5],[0,0.25]];outlineConnect=0;gradientColor=none;html=1;whiteSpace=wrap;fontSize=12;fontStyle=1;container=1;pointerEvents=0;collapsible=0;recursiveResize=0;shape=mxgraph.aws4.groupCenter;grIcon=mxgraph.aws4.group_auto_scaling_group;grStroke=1;strokeColor=#D86613;fillColor=none;verticalAlign=top;align=center;fontColor=#D86613;dashed=1;spacingTop=25;labelBorderColor=none;labelBackgroundColor=none;textShadow=0;" parent="If0-8-Tt-OfvkXR4IfFY-2" vertex="1">
          <mxGeometry x="120" y="100" width="720" height="80" as="geometry" />
        </mxCell>
        <mxCell id="If0-8-Tt-OfvkXR4IfFY-19" value="" style="sketch=0;points=[[0,0,0],[0.25,0,0],[0.5,0,0],[0.75,0,0],[1,0,0],[0,1,0],[0.25,1,0],[0.5,1,0],[0.75,1,0],[1,1,0],[0,0.25,0],[0,0.5,0],[0,0.75,0],[1,0.25,0],[1,0.5,0],[1,0.75,0]];outlineConnect=0;fontColor=#232F3E;fillColor=#ED7100;strokeColor=#ffffff;dashed=0;verticalLabelPosition=bottom;verticalAlign=top;align=center;html=1;fontSize=12;fontStyle=0;aspect=fixed;shape=mxgraph.aws4.resourceIcon;resIcon=mxgraph.aws4.ec2;" parent="If0-8-Tt-OfvkXR4IfFY-21" vertex="1">
          <mxGeometry x="550" y="8.5" width="39" height="39" as="geometry" />
        </mxCell>
        <mxCell id="If0-8-Tt-OfvkXR4IfFY-17" value="" style="sketch=0;points=[[0,0,0],[0.25,0,0],[0.5,0,0],[0.75,0,0],[1,0,0],[0,1,0],[0.25,1,0],[0.5,1,0],[0.75,1,0],[1,1,0],[0,0.25,0],[0,0.5,0],[0,0.75,0],[1,0.25,0],[1,0.5,0],[1,0.75,0]];outlineConnect=0;fontColor=#232F3E;fillColor=#ED7100;strokeColor=#ffffff;dashed=0;verticalLabelPosition=bottom;verticalAlign=top;align=center;html=1;fontSize=12;fontStyle=0;aspect=fixed;shape=mxgraph.aws4.resourceIcon;resIcon=mxgraph.aws4.ec2;" parent="If0-8-Tt-OfvkXR4IfFY-21" vertex="1">
          <mxGeometry x="51" y="8.5" width="39" height="39" as="geometry" />
        </mxCell>
        <mxCell id="If0-8-Tt-OfvkXR4IfFY-18" value="" style="sketch=0;points=[[0,0,0],[0.25,0,0],[0.5,0,0],[0.75,0,0],[1,0,0],[0,1,0],[0.25,1,0],[0.5,1,0],[0.75,1,0],[1,1,0],[0,0.25,0],[0,0.5,0],[0,0.75,0],[1,0.25,0],[1,0.5,0],[1,0.75,0]];outlineConnect=0;fontColor=#232F3E;fillColor=#ED7100;strokeColor=#ffffff;dashed=0;verticalLabelPosition=bottom;verticalAlign=top;align=center;html=1;fontSize=12;fontStyle=0;aspect=fixed;shape=mxgraph.aws4.resourceIcon;resIcon=mxgraph.aws4.ec2;" parent="If0-8-Tt-OfvkXR4IfFY-2" vertex="1">
          <mxGeometry x="260.5" y="109" width="39" height="39" as="geometry" />
        </mxCell>
        <mxCell id="If0-8-Tt-OfvkXR4IfFY-31" value="EC2" style="text;html=1;align=center;verticalAlign=middle;whiteSpace=wrap;rounded=0;fontStyle=1;fontSize=11;" parent="If0-8-Tt-OfvkXR4IfFY-2" vertex="1">
          <mxGeometry x="250" y="148.5" width="60" height="20" as="geometry" />
        </mxCell>
        <mxCell id="If0-8-Tt-OfvkXR4IfFY-32" value="EC2" style="text;html=1;align=center;verticalAlign=middle;whiteSpace=wrap;rounded=0;fontStyle=1;fontSize=11;" parent="If0-8-Tt-OfvkXR4IfFY-2" vertex="1">
          <mxGeometry x="160" y="149" width="60" height="20" as="geometry" />
        </mxCell>
        <mxCell id="If0-8-Tt-OfvkXR4IfFY-37" value="" style="sketch=0;points=[[0,0,0],[0.25,0,0],[0.5,0,0],[0.75,0,0],[1,0,0],[0,1,0],[0.25,1,0],[0.5,1,0],[0.75,1,0],[1,1,0],[0,0.25,0],[0,0.5,0],[0,0.75,0],[1,0.25,0],[1,0.5,0],[1,0.75,0]];outlineConnect=0;fontColor=#232F3E;fillColor=#8C4FFF;strokeColor=#ffffff;dashed=0;verticalLabelPosition=bottom;verticalAlign=top;align=center;html=1;fontSize=12;fontStyle=0;aspect=fixed;shape=mxgraph.aws4.resourceIcon;resIcon=mxgraph.aws4.elastic_load_balancing;" parent="If0-8-Tt-OfvkXR4IfFY-2" vertex="1">
          <mxGeometry x="460" y="184" width="40" height="40" as="geometry" />
        </mxCell>
        <mxCell id="If0-8-Tt-OfvkXR4IfFY-38" value="Private subnet" style="points=[[0,0],[0.25,0],[0.5,0],[0.75,0],[1,0],[1,0.25],[1,0.5],[1,0.75],[1,1],[0.75,1],[0.5,1],[0.25,1],[0,1],[0,0.75],[0,0.5],[0,0.25]];outlineConnect=0;gradientColor=none;html=1;whiteSpace=wrap;fontSize=12;fontStyle=0;container=1;pointerEvents=0;collapsible=0;recursiveResize=0;shape=mxgraph.aws4.group;grIcon=mxgraph.aws4.group_security_group;grStroke=0;strokeColor=#00A4A6;fillColor=#E6F6F7;verticalAlign=top;align=left;spacingLeft=30;fontColor=#147EBA;dashed=0;" parent="If0-8-Tt-OfvkXR4IfFY-2" vertex="1">
          <mxGeometry x="60" y="233.5" width="350" height="110" as="geometry" />
        </mxCell>
        <mxCell id="If0-8-Tt-OfvkXR4IfFY-40" value="" style="sketch=0;points=[[0,0,0],[0.25,0,0],[0.5,0,0],[0.75,0,0],[1,0,0],[0,1,0],[0.25,1,0],[0.5,1,0],[0.75,1,0],[1,1,0],[0,0.25,0],[0,0.5,0],[0,0.75,0],[1,0.25,0],[1,0.5,0],[1,0.75,0]];outlineConnect=0;fontColor=#232F3E;fillColor=#ED7100;strokeColor=#ffffff;dashed=0;verticalLabelPosition=bottom;verticalAlign=top;align=center;html=1;fontSize=12;fontStyle=0;aspect=fixed;shape=mxgraph.aws4.resourceIcon;resIcon=mxgraph.aws4.ec2;" parent="If0-8-Tt-OfvkXR4IfFY-38" vertex="1">
          <mxGeometry x="110" y="35.5" width="39" height="39" as="geometry" />
        </mxCell>
        <mxCell id="If0-8-Tt-OfvkXR4IfFY-70" value="EC2" style="text;html=1;align=center;verticalAlign=middle;whiteSpace=wrap;rounded=0;fontStyle=1;fontSize=11;" parent="If0-8-Tt-OfvkXR4IfFY-38" vertex="1">
          <mxGeometry x="190" y="74.5" width="60" height="20" as="geometry" />
        </mxCell>
        <mxCell id="If0-8-Tt-OfvkXR4IfFY-75" value="" style="fillColor=none;strokeColor=#5A6C86;dashed=1;verticalAlign=top;fontStyle=0;fontColor=#5A6C86;whiteSpace=wrap;html=1;" parent="If0-8-Tt-OfvkXR4IfFY-38" vertex="1">
          <mxGeometry x="50" y="30" width="250" height="70" as="geometry" />
        </mxCell>
        <mxCell id="If0-8-Tt-OfvkXR4IfFY-69" value="EC2" style="text;html=1;align=center;verticalAlign=middle;whiteSpace=wrap;rounded=0;fontStyle=1;fontSize=11;" parent="If0-8-Tt-OfvkXR4IfFY-38" vertex="1">
          <mxGeometry x="99.5" y="74.5" width="60" height="20" as="geometry" />
        </mxCell>
        <mxCell id="If0-8-Tt-OfvkXR4IfFY-41" value="" style="sketch=0;points=[[0,0,0],[0.25,0,0],[0.5,0,0],[0.75,0,0],[1,0,0],[0,1,0],[0.25,1,0],[0.5,1,0],[0.75,1,0],[1,1,0],[0,0.25,0],[0,0.5,0],[0,0.75,0],[1,0.25,0],[1,0.5,0],[1,0.75,0]];outlineConnect=0;fontColor=#232F3E;fillColor=#ED7100;strokeColor=#ffffff;dashed=0;verticalLabelPosition=bottom;verticalAlign=top;align=center;html=1;fontSize=12;fontStyle=0;aspect=fixed;shape=mxgraph.aws4.resourceIcon;resIcon=mxgraph.aws4.ec2;" parent="If0-8-Tt-OfvkXR4IfFY-38" vertex="1">
          <mxGeometry x="200.5" y="35.5" width="39" height="39" as="geometry" />
        </mxCell>
        <mxCell id="If0-8-Tt-OfvkXR4IfFY-39" value="Private subnet" style="points=[[0,0],[0.25,0],[0.5,0],[0.75,0],[1,0],[1,0.25],[1,0.5],[1,0.75],[1,1],[0.75,1],[0.5,1],[0.25,1],[0,1],[0,0.75],[0,0.5],[0,0.25]];outlineConnect=0;gradientColor=none;html=1;whiteSpace=wrap;fontSize=12;fontStyle=0;container=1;pointerEvents=0;collapsible=0;recursiveResize=0;shape=mxgraph.aws4.group;grIcon=mxgraph.aws4.group_security_group;grStroke=0;strokeColor=#00A4A6;fillColor=#E6F6F7;verticalAlign=top;align=left;spacingLeft=30;fontColor=#147EBA;dashed=0;" parent="If0-8-Tt-OfvkXR4IfFY-2" vertex="1">
          <mxGeometry x="550" y="234" width="380" height="110" as="geometry" />
        </mxCell>
        <mxCell id="If0-8-Tt-OfvkXR4IfFY-42" value="" style="sketch=0;points=[[0,0,0],[0.25,0,0],[0.5,0,0],[0.75,0,0],[1,0,0],[0,1,0],[0.25,1,0],[0.5,1,0],[0.75,1,0],[1,1,0],[0,0.25,0],[0,0.5,0],[0,0.75,0],[1,0.25,0],[1,0.5,0],[1,0.75,0]];outlineConnect=0;fontColor=#232F3E;fillColor=#ED7100;strokeColor=#ffffff;dashed=0;verticalLabelPosition=bottom;verticalAlign=top;align=center;html=1;fontSize=12;fontStyle=0;aspect=fixed;shape=mxgraph.aws4.resourceIcon;resIcon=mxgraph.aws4.ec2;" parent="If0-8-Tt-OfvkXR4IfFY-39" vertex="1">
          <mxGeometry x="120" y="35.5" width="39" height="39" as="geometry" />
        </mxCell>
        <mxCell id="If0-8-Tt-OfvkXR4IfFY-43" value="" style="sketch=0;points=[[0,0,0],[0.25,0,0],[0.5,0,0],[0.75,0,0],[1,0,0],[0,1,0],[0.25,1,0],[0.5,1,0],[0.75,1,0],[1,1,0],[0,0.25,0],[0,0.5,0],[0,0.75,0],[1,0.25,0],[1,0.5,0],[1,0.75,0]];outlineConnect=0;fontColor=#232F3E;fillColor=#ED7100;strokeColor=#ffffff;dashed=0;verticalLabelPosition=bottom;verticalAlign=top;align=center;html=1;fontSize=12;fontStyle=0;aspect=fixed;shape=mxgraph.aws4.resourceIcon;resIcon=mxgraph.aws4.ec2;" parent="If0-8-Tt-OfvkXR4IfFY-39" vertex="1">
          <mxGeometry x="200" y="35.5" width="39" height="39" as="geometry" />
        </mxCell>
        <mxCell id="If0-8-Tt-OfvkXR4IfFY-71" value="EC2" style="text;html=1;align=center;verticalAlign=middle;whiteSpace=wrap;rounded=0;fontStyle=1;fontSize=11;" parent="If0-8-Tt-OfvkXR4IfFY-39" vertex="1">
          <mxGeometry x="109.5" y="74.5" width="60" height="20" as="geometry" />
        </mxCell>
        <mxCell id="If0-8-Tt-OfvkXR4IfFY-72" value="EC2" style="text;html=1;align=center;verticalAlign=middle;whiteSpace=wrap;rounded=0;fontStyle=1;fontSize=11;" parent="If0-8-Tt-OfvkXR4IfFY-39" vertex="1">
          <mxGeometry x="189.5" y="74.5" width="60" height="20" as="geometry" />
        </mxCell>
        <mxCell id="If0-8-Tt-OfvkXR4IfFY-76" value="" style="fillColor=none;strokeColor=#5A6C86;dashed=1;verticalAlign=top;fontStyle=0;fontColor=#5A6C86;whiteSpace=wrap;html=1;" parent="If0-8-Tt-OfvkXR4IfFY-39" vertex="1">
          <mxGeometry x="65" y="24.5" width="250" height="70" as="geometry" />
        </mxCell>
        <mxCell id="If0-8-Tt-OfvkXR4IfFY-73" value="Front-end" style="text;html=1;align=left;verticalAlign=middle;whiteSpace=wrap;rounded=0;fontStyle=1;fontSize=10;" parent="If0-8-Tt-OfvkXR4IfFY-2" vertex="1">
          <mxGeometry x="60" y="60" width="110" height="20" as="geometry" />
        </mxCell>
        <mxCell id="If0-8-Tt-OfvkXR4IfFY-74" value="Back-end" style="text;html=1;align=left;verticalAlign=middle;whiteSpace=wrap;rounded=0;fontStyle=1;fontSize=10;" parent="If0-8-Tt-OfvkXR4IfFY-2" vertex="1">
          <mxGeometry x="60" y="213.5" width="110" height="20" as="geometry" />
        </mxCell>
        <mxCell id="If0-8-Tt-OfvkXR4IfFY-77" value="Private subnet" style="points=[[0,0],[0.25,0],[0.5,0],[0.75,0],[1,0],[1,0.25],[1,0.5],[1,0.75],[1,1],[0.75,1],[0.5,1],[0.25,1],[0,1],[0,0.75],[0,0.5],[0,0.25]];outlineConnect=0;gradientColor=none;html=1;whiteSpace=wrap;fontSize=12;fontStyle=0;container=1;pointerEvents=0;collapsible=0;recursiveResize=0;shape=mxgraph.aws4.group;grIcon=mxgraph.aws4.group_security_group;grStroke=0;strokeColor=#00A4A6;fillColor=#E6F6F7;verticalAlign=top;align=left;spacingLeft=30;fontColor=#147EBA;dashed=0;" parent="If0-8-Tt-OfvkXR4IfFY-2" vertex="1">
          <mxGeometry x="60" y="390" width="360" height="190" as="geometry" />
        </mxCell>
        <mxCell id="If0-8-Tt-OfvkXR4IfFY-85" value="Database" style="text;html=1;align=left;verticalAlign=middle;whiteSpace=wrap;rounded=0;fontStyle=1;fontSize=10;" parent="If0-8-Tt-OfvkXR4IfFY-77" vertex="1">
          <mxGeometry y="-20" width="110" height="20" as="geometry" />
        </mxCell>
        <mxCell id="If0-8-Tt-OfvkXR4IfFY-81" value="Private subnet" style="points=[[0,0],[0.25,0],[0.5,0],[0.75,0],[1,0],[1,0.25],[1,0.5],[1,0.75],[1,1],[0.75,1],[0.5,1],[0.25,1],[0,1],[0,0.75],[0,0.5],[0,0.25]];outlineConnect=0;gradientColor=none;html=1;whiteSpace=wrap;fontSize=12;fontStyle=0;container=1;pointerEvents=0;collapsible=0;recursiveResize=0;shape=mxgraph.aws4.group;grIcon=mxgraph.aws4.group_security_group;grStroke=0;strokeColor=#00A4A6;fillColor=#E6F6F7;verticalAlign=top;align=left;spacingLeft=30;fontColor=#147EBA;dashed=0;" parent="If0-8-Tt-OfvkXR4IfFY-2" vertex="1">
          <mxGeometry x="550" y="390" width="380" height="190" as="geometry" />
        </mxCell>
        <mxCell id="If0-8-Tt-OfvkXR4IfFY-127" value="" style="sketch=0;outlineConnect=0;fontColor=#232F3E;gradientColor=none;fillColor=#C925D1;strokeColor=none;dashed=0;verticalLabelPosition=bottom;verticalAlign=top;align=center;html=1;fontSize=12;fontStyle=0;aspect=fixed;pointerEvents=1;shape=mxgraph.aws4.elasticache_for_redis;" parent="If0-8-Tt-OfvkXR4IfFY-81" vertex="1">
          <mxGeometry x="132.39" y="10" width="45.22" height="40" as="geometry" />
        </mxCell>
        <mxCell id="If0-8-Tt-OfvkXR4IfFY-90" style="edgeStyle=orthogonalEdgeStyle;rounded=0;orthogonalLoop=1;jettySize=auto;html=1;entryX=0;entryY=0.5;entryDx=0;entryDy=0;dashed=1;" parent="If0-8-Tt-OfvkXR4IfFY-2" source="If0-8-Tt-OfvkXR4IfFY-87" target="If0-8-Tt-OfvkXR4IfFY-88" edge="1">
          <mxGeometry relative="1" as="geometry" />
        </mxCell>
        <mxCell id="If0-8-Tt-OfvkXR4IfFY-107" value="RDS Standby Databases" style="text;html=1;align=center;verticalAlign=middle;whiteSpace=wrap;rounded=0;fontStyle=1;fontSize=11;" parent="If0-8-Tt-OfvkXR4IfFY-2" vertex="1">
          <mxGeometry x="675" y="550" width="130" height="20" as="geometry" />
        </mxCell>
        <mxCell id="If0-8-Tt-OfvkXR4IfFY-108" value="ELB" style="text;html=1;align=center;verticalAlign=middle;whiteSpace=wrap;rounded=0;fontStyle=1;fontSize=11;" parent="If0-8-Tt-OfvkXR4IfFY-2" vertex="1">
          <mxGeometry x="450" y="224" width="60" height="20" as="geometry" />
        </mxCell>
        <mxCell id="If0-8-Tt-OfvkXR4IfFY-109" style="edgeStyle=orthogonalEdgeStyle;rounded=0;orthogonalLoop=1;jettySize=auto;html=1;exitX=0.75;exitY=1;exitDx=0;exitDy=0;entryX=1;entryY=0.5;entryDx=0;entryDy=0;entryPerimeter=0;" parent="If0-8-Tt-OfvkXR4IfFY-2" source="If0-8-Tt-OfvkXR4IfFY-21" target="If0-8-Tt-OfvkXR4IfFY-37" edge="1">
          <mxGeometry relative="1" as="geometry">
            <Array as="points">
              <mxPoint x="660" y="204" />
            </Array>
          </mxGeometry>
        </mxCell>
        <mxCell id="If0-8-Tt-OfvkXR4IfFY-110" style="edgeStyle=orthogonalEdgeStyle;rounded=0;orthogonalLoop=1;jettySize=auto;html=1;exitX=0.25;exitY=1;exitDx=0;exitDy=0;entryX=0;entryY=0.5;entryDx=0;entryDy=0;entryPerimeter=0;" parent="If0-8-Tt-OfvkXR4IfFY-2" source="If0-8-Tt-OfvkXR4IfFY-21" target="If0-8-Tt-OfvkXR4IfFY-37" edge="1">
          <mxGeometry relative="1" as="geometry" />
        </mxCell>
        <mxCell id="If0-8-Tt-OfvkXR4IfFY-111" style="edgeStyle=orthogonalEdgeStyle;rounded=0;orthogonalLoop=1;jettySize=auto;html=1;exitX=0;exitY=0.5;exitDx=0;exitDy=0;exitPerimeter=0;entryX=0.475;entryY=0.041;entryDx=0;entryDy=0;entryPerimeter=0;" parent="If0-8-Tt-OfvkXR4IfFY-2" source="If0-8-Tt-OfvkXR4IfFY-37" target="If0-8-Tt-OfvkXR4IfFY-75" edge="1">
          <mxGeometry relative="1" as="geometry" />
        </mxCell>
        <mxCell id="If0-8-Tt-OfvkXR4IfFY-112" style="edgeStyle=orthogonalEdgeStyle;rounded=0;orthogonalLoop=1;jettySize=auto;html=1;exitX=1;exitY=0.5;exitDx=0;exitDy=0;exitPerimeter=0;entryX=0.462;entryY=0.053;entryDx=0;entryDy=0;entryPerimeter=0;" parent="If0-8-Tt-OfvkXR4IfFY-2" source="If0-8-Tt-OfvkXR4IfFY-37" target="If0-8-Tt-OfvkXR4IfFY-76" edge="1">
          <mxGeometry relative="1" as="geometry" />
        </mxCell>
        <mxCell id="If0-8-Tt-OfvkXR4IfFY-113" style="edgeStyle=orthogonalEdgeStyle;rounded=0;orthogonalLoop=1;jettySize=auto;html=1;exitX=0.5;exitY=1;exitDx=0;exitDy=0;entryX=0.5;entryY=0;entryDx=0;entryDy=0;" parent="If0-8-Tt-OfvkXR4IfFY-2" source="If0-8-Tt-OfvkXR4IfFY-75" target="If0-8-Tt-OfvkXR4IfFY-86" edge="1">
          <mxGeometry relative="1" as="geometry">
            <Array as="points">
              <mxPoint x="235" y="370" />
              <mxPoint x="130" y="370" />
            </Array>
          </mxGeometry>
        </mxCell>
        <mxCell id="If0-8-Tt-OfvkXR4IfFY-119" value="Replication" style="text;html=1;align=center;verticalAlign=middle;whiteSpace=wrap;rounded=0;fontStyle=1;fontSize=9;" parent="If0-8-Tt-OfvkXR4IfFY-2" vertex="1">
          <mxGeometry x="440" y="500" width="130" height="20" as="geometry" />
        </mxCell>
        <mxCell id="If0-8-Tt-OfvkXR4IfFY-86" value="" style="fillColor=none;strokeColor=#5A6C86;dashed=1;verticalAlign=top;fontStyle=0;fontColor=#5A6C86;whiteSpace=wrap;html=1;" parent="If0-8-Tt-OfvkXR4IfFY-2" vertex="1">
          <mxGeometry x="70" y="490" width="120" height="60" as="geometry" />
        </mxCell>
        <mxCell id="If0-8-Tt-OfvkXR4IfFY-87" value="" style="fillColor=none;strokeColor=#5A6C86;dashed=1;verticalAlign=top;fontStyle=0;fontColor=#5A6C86;whiteSpace=wrap;html=1;" parent="If0-8-Tt-OfvkXR4IfFY-2" vertex="1">
          <mxGeometry x="260.5" y="490" width="125" height="60" as="geometry" />
        </mxCell>
        <mxCell id="If0-8-Tt-OfvkXR4IfFY-106" value="RDS Primary Databases" style="text;html=1;align=center;verticalAlign=middle;whiteSpace=wrap;rounded=0;fontStyle=1;fontSize=11;" parent="If0-8-Tt-OfvkXR4IfFY-2" vertex="1">
          <mxGeometry x="258" y="550" width="130" height="20" as="geometry" />
        </mxCell>
        <mxCell id="If0-8-Tt-OfvkXR4IfFY-105" value="RDS Read Replicas" style="text;html=1;align=center;verticalAlign=middle;whiteSpace=wrap;rounded=0;fontStyle=1;fontSize=11;" parent="If0-8-Tt-OfvkXR4IfFY-2" vertex="1">
          <mxGeometry x="90" y="550" width="110" height="20" as="geometry" />
        </mxCell>
        <mxCell id="If0-8-Tt-OfvkXR4IfFY-89" style="edgeStyle=orthogonalEdgeStyle;rounded=0;orthogonalLoop=1;jettySize=auto;html=1;entryX=1;entryY=0.5;entryDx=0;entryDy=0;dashed=1;exitX=0;exitY=0.5;exitDx=0;exitDy=0;" parent="If0-8-Tt-OfvkXR4IfFY-2" source="If0-8-Tt-OfvkXR4IfFY-87" target="If0-8-Tt-OfvkXR4IfFY-86" edge="1">
          <mxGeometry relative="1" as="geometry" />
        </mxCell>
        <mxCell id="If0-8-Tt-OfvkXR4IfFY-100" value="" style="sketch=0;points=[[0,0,0],[0.25,0,0],[0.5,0,0],[0.75,0,0],[1,0,0],[0,1,0],[0.25,1,0],[0.5,1,0],[0.75,1,0],[1,1,0],[0,0.25,0],[0,0.5,0],[0,0.75,0],[1,0.25,0],[1,0.5,0],[1,0.75,0]];outlineConnect=0;fontColor=#232F3E;fillColor=#C925D1;strokeColor=#ffffff;dashed=0;verticalLabelPosition=bottom;verticalAlign=top;align=center;html=1;fontSize=12;fontStyle=0;aspect=fixed;shape=mxgraph.aws4.resourceIcon;resIcon=mxgraph.aws4.rds;" parent="If0-8-Tt-OfvkXR4IfFY-2" vertex="1">
          <mxGeometry x="330" y="500" width="40" height="40" as="geometry" />
        </mxCell>
        <mxCell id="If0-8-Tt-OfvkXR4IfFY-99" value="" style="sketch=0;points=[[0,0,0],[0.25,0,0],[0.5,0,0],[0.75,0,0],[1,0,0],[0,1,0],[0.25,1,0],[0.5,1,0],[0.75,1,0],[1,1,0],[0,0.25,0],[0,0.5,0],[0,0.75,0],[1,0.25,0],[1,0.5,0],[1,0.75,0]];outlineConnect=0;fontColor=#232F3E;fillColor=#C925D1;strokeColor=#ffffff;dashed=0;verticalLabelPosition=bottom;verticalAlign=top;align=center;html=1;fontSize=12;fontStyle=0;aspect=fixed;shape=mxgraph.aws4.resourceIcon;resIcon=mxgraph.aws4.rds;" parent="If0-8-Tt-OfvkXR4IfFY-2" vertex="1">
          <mxGeometry x="270" y="500" width="40" height="40" as="geometry" />
        </mxCell>
        <mxCell id="If0-8-Tt-OfvkXR4IfFY-98" value="" style="sketch=0;points=[[0,0,0],[0.25,0,0],[0.5,0,0],[0.75,0,0],[1,0,0],[0,1,0],[0.25,1,0],[0.5,1,0],[0.75,1,0],[1,1,0],[0,0.25,0],[0,0.5,0],[0,0.75,0],[1,0.25,0],[1,0.5,0],[1,0.75,0]];outlineConnect=0;fontColor=#232F3E;fillColor=#C925D1;strokeColor=#ffffff;dashed=0;verticalLabelPosition=bottom;verticalAlign=top;align=center;html=1;fontSize=12;fontStyle=0;aspect=fixed;shape=mxgraph.aws4.resourceIcon;resIcon=mxgraph.aws4.rds;" parent="If0-8-Tt-OfvkXR4IfFY-2" vertex="1">
          <mxGeometry x="140" y="500" width="40" height="40" as="geometry" />
        </mxCell>
        <mxCell id="If0-8-Tt-OfvkXR4IfFY-97" value="" style="sketch=0;points=[[0,0,0],[0.25,0,0],[0.5,0,0],[0.75,0,0],[1,0,0],[0,1,0],[0.25,1,0],[0.5,1,0],[0.75,1,0],[1,1,0],[0,0.25,0],[0,0.5,0],[0,0.75,0],[1,0.25,0],[1,0.5,0],[1,0.75,0]];outlineConnect=0;fontColor=#232F3E;fillColor=#C925D1;strokeColor=#ffffff;dashed=0;verticalLabelPosition=bottom;verticalAlign=top;align=center;html=1;fontSize=12;fontStyle=0;aspect=fixed;shape=mxgraph.aws4.resourceIcon;resIcon=mxgraph.aws4.rds;" parent="If0-8-Tt-OfvkXR4IfFY-2" vertex="1">
          <mxGeometry x="80" y="500" width="40" height="40" as="geometry" />
        </mxCell>
        <mxCell id="If0-8-Tt-OfvkXR4IfFY-102" value="" style="sketch=0;points=[[0,0,0],[0.25,0,0],[0.5,0,0],[0.75,0,0],[1,0,0],[0,1,0],[0.25,1,0],[0.5,1,0],[0.75,1,0],[1,1,0],[0,0.25,0],[0,0.5,0],[0,0.75,0],[1,0.25,0],[1,0.5,0],[1,0.75,0]];outlineConnect=0;fontColor=#232F3E;fillColor=#C925D1;strokeColor=#ffffff;dashed=0;verticalLabelPosition=bottom;verticalAlign=top;align=center;html=1;fontSize=12;fontStyle=0;aspect=fixed;shape=mxgraph.aws4.resourceIcon;resIcon=mxgraph.aws4.rds;" parent="If0-8-Tt-OfvkXR4IfFY-2" vertex="1">
          <mxGeometry x="720" y="500" width="40" height="40" as="geometry" />
        </mxCell>
        <mxCell id="If0-8-Tt-OfvkXR4IfFY-101" value="" style="sketch=0;points=[[0,0,0],[0.25,0,0],[0.5,0,0],[0.75,0,0],[1,0,0],[0,1,0],[0.25,1,0],[0.5,1,0],[0.75,1,0],[1,1,0],[0,0.25,0],[0,0.5,0],[0,0.75,0],[1,0.25,0],[1,0.5,0],[1,0.75,0]];outlineConnect=0;fontColor=#232F3E;fillColor=#C925D1;strokeColor=#ffffff;dashed=0;verticalLabelPosition=bottom;verticalAlign=top;align=center;html=1;fontSize=12;fontStyle=0;aspect=fixed;shape=mxgraph.aws4.resourceIcon;resIcon=mxgraph.aws4.rds;" parent="If0-8-Tt-OfvkXR4IfFY-2" vertex="1">
          <mxGeometry x="670" y="500" width="40" height="40" as="geometry" />
        </mxCell>
        <mxCell id="If0-8-Tt-OfvkXR4IfFY-103" value="" style="sketch=0;points=[[0,0,0],[0.25,0,0],[0.5,0,0],[0.75,0,0],[1,0,0],[0,1,0],[0.25,1,0],[0.5,1,0],[0.75,1,0],[1,1,0],[0,0.25,0],[0,0.5,0],[0,0.75,0],[1,0.25,0],[1,0.5,0],[1,0.75,0]];outlineConnect=0;fontColor=#232F3E;fillColor=#C925D1;strokeColor=#ffffff;dashed=0;verticalLabelPosition=bottom;verticalAlign=top;align=center;html=1;fontSize=12;fontStyle=0;aspect=fixed;shape=mxgraph.aws4.resourceIcon;resIcon=mxgraph.aws4.rds;" parent="If0-8-Tt-OfvkXR4IfFY-2" vertex="1">
          <mxGeometry x="770" y="500" width="40" height="40" as="geometry" />
        </mxCell>
        <mxCell id="If0-8-Tt-OfvkXR4IfFY-88" value="" style="fillColor=none;strokeColor=#5A6C86;dashed=1;verticalAlign=top;fontStyle=0;fontColor=#5A6C86;whiteSpace=wrap;html=1;" parent="If0-8-Tt-OfvkXR4IfFY-2" vertex="1">
          <mxGeometry x="615" y="490" width="240" height="60" as="geometry" />
        </mxCell>
        <mxCell id="If0-8-Tt-OfvkXR4IfFY-120" value="Replication" style="text;html=1;align=center;verticalAlign=middle;whiteSpace=wrap;rounded=0;fontStyle=1;fontSize=9;" parent="If0-8-Tt-OfvkXR4IfFY-2" vertex="1">
          <mxGeometry x="160" y="500" width="130" height="20" as="geometry" />
        </mxCell>
        <mxCell id="If0-8-Tt-OfvkXR4IfFY-131" style="edgeStyle=orthogonalEdgeStyle;rounded=0;orthogonalLoop=1;jettySize=auto;html=1;entryX=0.5;entryY=0;entryDx=0;entryDy=0;" parent="If0-8-Tt-OfvkXR4IfFY-2" source="If0-8-Tt-OfvkXR4IfFY-124" target="If0-8-Tt-OfvkXR4IfFY-87" edge="1">
          <mxGeometry relative="1" as="geometry">
            <Array as="points">
              <mxPoint x="323" y="420" />
            </Array>
          </mxGeometry>
        </mxCell>
        <mxCell id="If0-8-Tt-OfvkXR4IfFY-132" style="edgeStyle=orthogonalEdgeStyle;rounded=0;orthogonalLoop=1;jettySize=auto;html=1;dashed=1;" parent="If0-8-Tt-OfvkXR4IfFY-2" source="If0-8-Tt-OfvkXR4IfFY-124" target="If0-8-Tt-OfvkXR4IfFY-127" edge="1">
          <mxGeometry relative="1" as="geometry">
            <Array as="points">
              <mxPoint x="267" y="470" />
              <mxPoint x="705" y="470" />
            </Array>
          </mxGeometry>
        </mxCell>
        <mxCell id="If0-8-Tt-OfvkXR4IfFY-124" value="" style="sketch=0;outlineConnect=0;fontColor=#232F3E;gradientColor=none;fillColor=#C925D1;strokeColor=none;dashed=0;verticalLabelPosition=bottom;verticalAlign=top;align=center;html=1;fontSize=12;fontStyle=0;aspect=fixed;pointerEvents=1;shape=mxgraph.aws4.elasticache_for_redis;" parent="If0-8-Tt-OfvkXR4IfFY-2" vertex="1">
          <mxGeometry x="244.78" y="400" width="45.22" height="40" as="geometry" />
        </mxCell>
        <mxCell id="If0-8-Tt-OfvkXR4IfFY-126" value="Elasticache&lt;div&gt;&amp;nbsp;Radis&lt;/div&gt;" style="text;html=1;align=center;verticalAlign=middle;whiteSpace=wrap;rounded=0;fontStyle=1;fontSize=11;" parent="If0-8-Tt-OfvkXR4IfFY-2" vertex="1">
          <mxGeometry x="180" y="430" width="77.61" height="20" as="geometry" />
        </mxCell>
        <mxCell id="If0-8-Tt-OfvkXR4IfFY-130" style="edgeStyle=orthogonalEdgeStyle;rounded=0;orthogonalLoop=1;jettySize=auto;html=1;entryX=0.5;entryY=0;entryDx=0;entryDy=0;" parent="If0-8-Tt-OfvkXR4IfFY-2" source="If0-8-Tt-OfvkXR4IfFY-127" target="If0-8-Tt-OfvkXR4IfFY-87" edge="1">
          <mxGeometry relative="1" as="geometry" />
        </mxCell>
        <mxCell id="If0-8-Tt-OfvkXR4IfFY-128" value="Elasticache&amp;nbsp;&lt;div&gt;Radis&lt;/div&gt;" style="text;html=1;align=center;verticalAlign=middle;whiteSpace=wrap;rounded=0;fontStyle=1;fontSize=11;" parent="If0-8-Tt-OfvkXR4IfFY-2" vertex="1">
          <mxGeometry x="690" y="440" width="130" height="20" as="geometry" />
        </mxCell>
        <mxCell id="If0-8-Tt-OfvkXR4IfFY-129" style="edgeStyle=orthogonalEdgeStyle;rounded=0;orthogonalLoop=1;jettySize=auto;html=1;" parent="If0-8-Tt-OfvkXR4IfFY-2" source="If0-8-Tt-OfvkXR4IfFY-76" target="If0-8-Tt-OfvkXR4IfFY-127" edge="1">
          <mxGeometry relative="1" as="geometry" />
        </mxCell>
        <mxCell id="If0-8-Tt-OfvkXR4IfFY-133" value="Replication" style="text;html=1;align=center;verticalAlign=middle;whiteSpace=wrap;rounded=0;fontStyle=1;fontSize=9;" parent="If0-8-Tt-OfvkXR4IfFY-2" vertex="1">
          <mxGeometry x="430" y="450" width="130" height="20" as="geometry" />
        </mxCell>
        <mxCell id="If0-8-Tt-OfvkXR4IfFY-135" style="edgeStyle=orthogonalEdgeStyle;rounded=0;orthogonalLoop=1;jettySize=auto;html=1;exitX=0.5;exitY=1;exitDx=0;exitDy=0;" parent="If0-8-Tt-OfvkXR4IfFY-2" source="If0-8-Tt-OfvkXR4IfFY-75" target="If0-8-Tt-OfvkXR4IfFY-124" edge="1">
          <mxGeometry relative="1" as="geometry">
            <Array as="points">
              <mxPoint x="235" y="370" />
              <mxPoint x="267" y="370" />
            </Array>
          </mxGeometry>
        </mxCell>
        <mxCell id="If0-8-Tt-OfvkXR4IfFY-3" value="" style="sketch=0;points=[[0,0,0],[0.25,0,0],[0.5,0,0],[0.75,0,0],[1,0,0],[0,1,0],[0.25,1,0],[0.5,1,0],[0.75,1,0],[1,1,0],[0,0.25,0],[0,0.5,0],[0,0.75,0],[1,0.25,0],[1,0.5,0],[1,0.75,0]];outlineConnect=0;fontColor=#232F3E;fillColor=#8C4FFF;strokeColor=#ffffff;dashed=0;verticalLabelPosition=bottom;verticalAlign=top;align=center;html=1;fontSize=12;fontStyle=0;aspect=fixed;shape=mxgraph.aws4.resourceIcon;resIcon=mxgraph.aws4.route_53;" parent="If0-8-Tt-OfvkXR4IfFY-1" vertex="1">
          <mxGeometry x="200" y="50" width="40" height="40" as="geometry" />
        </mxCell>
        <mxCell id="If0-8-Tt-OfvkXR4IfFY-26" style="edgeStyle=orthogonalEdgeStyle;rounded=0;orthogonalLoop=1;jettySize=auto;html=1;" parent="If0-8-Tt-OfvkXR4IfFY-1" source="If0-8-Tt-OfvkXR4IfFY-4" target="If0-8-Tt-OfvkXR4IfFY-9" edge="1">
          <mxGeometry relative="1" as="geometry" />
        </mxCell>
        <mxCell id="If0-8-Tt-OfvkXR4IfFY-4" value="" style="sketch=0;points=[[0,0,0],[0.25,0,0],[0.5,0,0],[0.75,0,0],[1,0,0],[0,1,0],[0.25,1,0],[0.5,1,0],[0.75,1,0],[1,1,0],[0,0.25,0],[0,0.5,0],[0,0.75,0],[1,0.25,0],[1,0.5,0],[1,0.75,0]];outlineConnect=0;fontColor=#232F3E;fillColor=#8C4FFF;strokeColor=#ffffff;dashed=0;verticalLabelPosition=bottom;verticalAlign=top;align=center;html=1;fontSize=12;fontStyle=0;aspect=fixed;shape=mxgraph.aws4.resourceIcon;resIcon=mxgraph.aws4.cloudfront;" parent="If0-8-Tt-OfvkXR4IfFY-1" vertex="1">
          <mxGeometry x="350" y="50" width="40" height="40" as="geometry" />
        </mxCell>
        <mxCell id="If0-8-Tt-OfvkXR4IfFY-7" value="" style="shape=curlyBracket;whiteSpace=wrap;html=1;rounded=1;flipH=1;labelPosition=right;verticalLabelPosition=middle;align=left;verticalAlign=middle;fillColor=#d80073;strokeColor=#A50040;fontColor=#ffffff;" parent="If0-8-Tt-OfvkXR4IfFY-1" vertex="1">
          <mxGeometry x="1010" y="110" width="40" height="600" as="geometry" />
        </mxCell>
        <mxCell id="If0-8-Tt-OfvkXR4IfFY-25" style="edgeStyle=orthogonalEdgeStyle;rounded=0;orthogonalLoop=1;jettySize=auto;html=1;entryX=0;entryY=0.5;entryDx=0;entryDy=0;entryPerimeter=0;" parent="If0-8-Tt-OfvkXR4IfFY-1" source="If0-8-Tt-OfvkXR4IfFY-3" target="If0-8-Tt-OfvkXR4IfFY-4" edge="1">
          <mxGeometry relative="1" as="geometry" />
        </mxCell>
        <mxCell id="If0-8-Tt-OfvkXR4IfFY-35" value="Cloud&lt;span style=&quot;background-color: transparent; color: light-dark(rgb(0, 0, 0), rgb(255, 255, 255));&quot;&gt;Front&lt;/span&gt;" style="text;html=1;align=center;verticalAlign=middle;whiteSpace=wrap;rounded=0;fontStyle=1;fontSize=11;" parent="If0-8-Tt-OfvkXR4IfFY-1" vertex="1">
          <mxGeometry x="335" y="90" width="70" height="20" as="geometry" />
        </mxCell>
        <mxCell id="If0-8-Tt-OfvkXR4IfFY-36" value="Route53" style="text;html=1;align=center;verticalAlign=middle;whiteSpace=wrap;rounded=0;fontStyle=1;fontSize=11;" parent="If0-8-Tt-OfvkXR4IfFY-1" vertex="1">
          <mxGeometry x="185" y="90" width="70" height="20" as="geometry" />
        </mxCell>
        <mxCell id="If0-8-Tt-OfvkXR4IfFY-114" value="" style="sketch=0;points=[[0,0,0],[0.25,0,0],[0.5,0,0],[0.75,0,0],[1,0,0],[0,1,0],[0.25,1,0],[0.5,1,0],[0.75,1,0],[1,1,0],[0,0.25,0],[0,0.5,0],[0,0.75,0],[1,0.25,0],[1,0.5,0],[1,0.75,0]];points=[[0,0,0],[0.25,0,0],[0.5,0,0],[0.75,0,0],[1,0,0],[0,1,0],[0.25,1,0],[0.5,1,0],[0.75,1,0],[1,1,0],[0,0.25,0],[0,0.5,0],[0,0.75,0],[1,0.25,0],[1,0.5,0],[1,0.75,0]];outlineConnect=0;fontColor=#232F3E;fillColor=#E7157B;strokeColor=#ffffff;dashed=0;verticalLabelPosition=bottom;verticalAlign=top;align=center;html=1;fontSize=12;fontStyle=0;aspect=fixed;shape=mxgraph.aws4.resourceIcon;resIcon=mxgraph.aws4.cloudwatch_2;" parent="If0-8-Tt-OfvkXR4IfFY-1" vertex="1">
          <mxGeometry x="1050" y="391" width="38" height="38" as="geometry" />
        </mxCell>
        <mxCell id="If0-8-Tt-OfvkXR4IfFY-115" value="CloudWhatch" style="text;html=1;align=center;verticalAlign=middle;whiteSpace=wrap;rounded=0;fontStyle=1;fontSize=11;" parent="If0-8-Tt-OfvkXR4IfFY-1" vertex="1">
          <mxGeometry x="1039" y="429" width="60" height="20" as="geometry" />
        </mxCell>
        <mxCell id="If0-8-Tt-OfvkXR4IfFY-116" value="" style="sketch=0;points=[[0,0,0],[0.25,0,0],[0.5,0,0],[0.75,0,0],[1,0,0],[0,1,0],[0.25,1,0],[0.5,1,0],[0.75,1,0],[1,1,0],[0,0.25,0],[0,0.5,0],[0,0.75,0],[1,0.25,0],[1,0.5,0],[1,0.75,0]];outlineConnect=0;fontColor=#232F3E;fillColor=#DD344C;strokeColor=#ffffff;dashed=0;verticalLabelPosition=bottom;verticalAlign=top;align=center;html=1;fontSize=12;fontStyle=0;aspect=fixed;shape=mxgraph.aws4.resourceIcon;resIcon=mxgraph.aws4.waf;" parent="If0-8-Tt-OfvkXR4IfFY-1" vertex="1">
          <mxGeometry x="434" y="10" width="40" height="40" as="geometry" />
        </mxCell>
        <mxCell id="If0-8-Tt-OfvkXR4IfFY-117" value="WAF&lt;div&gt;&lt;br&gt;&lt;/div&gt;" style="text;html=1;align=center;verticalAlign=middle;whiteSpace=wrap;rounded=0;fontStyle=1;fontSize=11;" parent="If0-8-Tt-OfvkXR4IfFY-1" vertex="1">
          <mxGeometry x="419" y="60" width="70" height="10" as="geometry" />
        </mxCell>
        <mxCell id="If0-8-Tt-OfvkXR4IfFY-118" style="edgeStyle=orthogonalEdgeStyle;rounded=0;orthogonalLoop=1;jettySize=auto;html=1;exitX=0;exitY=0.5;exitDx=0;exitDy=0;exitPerimeter=0;entryX=0.5;entryY=0;entryDx=0;entryDy=0;entryPerimeter=0;" parent="If0-8-Tt-OfvkXR4IfFY-1" source="If0-8-Tt-OfvkXR4IfFY-116" target="If0-8-Tt-OfvkXR4IfFY-4" edge="1">
          <mxGeometry relative="1" as="geometry" />
        </mxCell>
        <mxCell id="If0-8-Tt-OfvkXR4IfFY-5" value="Users" style="sketch=0;outlineConnect=0;fontColor=#232F3E;gradientColor=none;strokeColor=#232F3E;fillColor=#ffffff;dashed=0;verticalLabelPosition=bottom;verticalAlign=top;align=center;html=1;fontSize=12;fontStyle=0;aspect=fixed;shape=mxgraph.aws4.resourceIcon;resIcon=mxgraph.aws4.users;" parent="1" vertex="1">
          <mxGeometry x="90" y="10" width="30" height="30" as="geometry" />
        </mxCell>
        <mxCell id="If0-8-Tt-OfvkXR4IfFY-24" style="edgeStyle=orthogonalEdgeStyle;rounded=0;orthogonalLoop=1;jettySize=auto;html=1;entryX=0;entryY=0.5;entryDx=0;entryDy=0;entryPerimeter=0;" parent="1" source="If0-8-Tt-OfvkXR4IfFY-5" target="If0-8-Tt-OfvkXR4IfFY-3" edge="1">
          <mxGeometry relative="1" as="geometry" />
        </mxCell>
      </root>
    </mxGraphModel>
  </diagram>
</mxfile>
